{"asset":{"version":"2.0","generator":"THREE.GLTFExporter"},"scenes":[{"nodes":[0],"name":"AuxScene"}],"scene":0,"nodes":[{"mesh":0}],"bufferViews":[{"buffer":0,"byteOffset":0,"byteLength":158796,"target":34962,"byteStride":12},{"buffer":0,"byteOffset":158796,"byteLength":158796,"target":34962,"byteStride":12}],"buffers":[{"byteLength":317592,"uri":"data:application/octet-stream;base64,"}],"accessors":[{"bufferView":0,"componentType":5126,"count":13233,"max":[99.17001342773438,68.75999450683594,-5.29998779296875],"min":[-99.7300033569336,-19.239999771118164,-559.4000244140625],"type":"VEC3"},{"bufferView":1,"componentType":5126,"count":13233,"max":[0.9327995777130127,1,0.6246926188468933],"min":[-0.654098391532898,0.31799495220184326,-0.5547173023223877],"type":"VEC3"}],"materials":[{"pbrMetallicRoughness":{"baseColorFactor":[0.5019607843137255,0.5019607843137255,0.5019607843137255,1],"metallicFactor":0,"roughnessFactor":1}}],"meshes":[{"primitives":[{"mode":4,"attributes":{"POSITION":0,"NORMAL":1},"material":0}]}]}